<svg width="169" height="217" viewBox="0 0 169 217" fill="none" xmlns="http://www.w3.org/2000/svg">
<path d="M103.707 98.39L103.866 98.1749L103.94 97.9183L111.99 70.2023L109.109 69.3656L101.134 96.8251L90.1798 111.687L96.3394 79.3792L93.3925 78.8173L81.0248 143.687L80.989 143.875L81.0015 144.066L85.547 213.572C34.5106 186.824 19.2877 132.124 3.48138 57.2553C1.75034 42.7985 1.42368 31.6043 2.20967 23.1577C2.99979 14.6666 4.89978 9.12283 7.46183 5.81152C9.94465 2.6026 13.1301 1.38091 16.9717 1.68906C20.9207 2.00583 25.5921 3.95241 30.772 7.2537C41.1126 13.8441 52.9159 25.4627 64.0841 38.323C75.2314 51.1593 85.6615 65.1334 93.258 76.3416L94.0294 77.4796L95.2301 76.8101C101.651 73.2308 107.525 69.8549 112.911 66.7593C119.868 62.7615 126.011 59.2313 131.465 56.3345C136.284 53.775 140.494 51.7501 144.169 50.37C147.856 48.9856 150.913 48.2857 153.448 48.2972C155.937 48.3084 157.908 49.003 159.53 50.4349C161.188 51.8985 162.607 54.2423 163.743 57.7707C166.026 64.865 167 76.1885 167 92.9998C167 157.804 119.483 196.662 88.5471 213.475L86.4106 180.806L103.356 188.855L103.792 189.062L104.267 188.976L126.328 184.98L125.793 182.028L104.208 185.938L86.1864 177.378L85.2337 162.81L121.756 156.478L122.018 156.433L122.248 156.3L159.573 134.832L158.077 132.231L120.982 153.567L85.0368 159.799L84.0328 144.448L126.467 108.646L126.661 108.483L126.79 108.265L159.905 52.447L157.324 50.9163L124.339 106.517L84.8066 139.87L88.8795 118.507L103.707 98.39Z" stroke="black" stroke-opacity="0.38" stroke-width="3"/>
</svg>
