<svg width="1406" height="63" viewBox="0 0 1406 63" fill="none" xmlns="http://www.w3.org/2000/svg">
<path d="M1374.82 46.0403L1382.64 54.0943M1378.37 44.2098L1386.9 52.6299M1381.93 41.6471L1391.17 51.1656M1384.41 38.7184L1395.08 49.7012M1386.55 35.0575L1398.98 47.8707M1387.97 32.1287L1401.83 45.3081M1391.17 30.2983L1403.96 42.3793M1395.08 29.2L1405.38 38.7184M1398.27 28.8339L1405.03 35.0575M483.819 45.0403L491.637 53.0943M487.372 43.2098L495.901 51.6299M490.926 40.6471L500.166 50.1656M493.414 37.7184L504.075 48.7012M495.546 34.0575L507.984 46.8707M496.968 31.1287L510.827 44.3081M500.166 29.2983L512.96 41.3793M504.075 28.2L514.381 37.7184M507.273 27.8339L514.026 34.0575M662.472 35.9721L654.97 41.0351M660.444 33.6947L652.353 38.9127M658.601 30.8067L649.736 36.7902M657.596 27.8388L647.367 34.7429M657.025 24.3355L645.091 32.3903M656.767 21.593L643.745 29.6525M654.989 19.3907L642.99 26.7598M652.528 17.6486L642.916 23.4067M650.381 16.6672L644.086 20.4293M549 7C549 9.20914 546.985 11 544.5 11C542.015 11 540 9.20914 540 7C540 4.79086 542.015 3 544.5 3C546.985 3 549 4.79086 549 7ZM596 54C596 56.2091 593.985 58 591.5 58C589.015 58 587 56.2091 587 54C587 51.7909 589.015 50 591.5 50C593.985 50 596 51.7909 596 54ZM741 7C741 9.20914 738.985 11 736.5 11C734.015 11 732 9.20914 732 7C732 4.79086 734.015 3 736.5 3C738.985 3 741 4.79086 741 7ZM10 58C10 60.2091 7.98528 62 5.5 62C3.01472 62 1 60.2091 1 58C1 55.7909 3.01472 54 5.5 54C7.98528 54 10 55.7909 10 58ZM1276 54C1276 56.2091 1273.99 58 1271.5 58C1269.01 58 1267 56.2091 1267 54C1267 51.7909 1269.01 50 1271.5 50C1273.99 50 1276 51.7909 1276 54ZM212 7C212 9.20914 209.985 11 207.5 11C205.015 11 203 9.20914 203 7C203 4.79086 205.015 3 207.5 3C209.985 3 212 4.79086 212 7ZM1191.41 8.32209C1191.34 8.51138 1191.5 9.03677 1191.76 9.48945C1192.48 10.7004 1192.4 10.9013 1191.15 11.0444C1190.39 11.1326 1189.64 11.0306 1188.67 10.7039C1186.94 10.1194 1183.93 10.1956 1183.3 10.8403C1182.93 11.2155 1182.95 11.2704 1183.54 11.7889C1183.89 12.0915 1184.35 12.4357 1184.56 12.5536C1185.57 13.1206 1183.55 14.4412 1181.68 14.4412C1180.26 14.4412 1178.92 14.9075 1177.59 15.8651C1176.31 16.785 1176.34 17.2437 1177.72 17.577C1178.29 17.7146 1178.78 17.9743 1178.82 18.1541C1178.91 18.6716 1177.71 19.8644 1176.45 20.5029C1174.61 21.4385 1172.65 23.593 1172.65 24.6825C1172.65 25.069 1172.78 25.0971 1173.89 24.9572C1174.61 24.8679 1175.2 24.8942 1175.27 25.0193C1175.54 25.4575 1174.74 27.4079 1173.91 28.3282C1172.87 29.4822 1172.27 30.7927 1172.06 32.3596C1171.86 33.8698 1172.12 34.0284 1173.47 33.2357C1174.21 32.8008 1174.6 32.6886 1174.77 32.8596C1175.06 33.154 1174.89 35.4303 1174.42 37.4425C1174.17 38.5053 1174.14 39.1695 1174.31 40.0972C1174.68 42.1711 1175.18 42.4036 1176.18 40.9832C1176.54 40.4779 1176.9 40.0651 1176.99 40.0654C1177.44 40.0679 1178.39 42.588 1178.49 44.0375C1178.59 45.6056 1179.12 46.8369 1180.23 48.1176C1180.85 48.826 1181.26 48.5241 1181.62 47.0984C1181.76 46.5308 1181.94 46.0666 1182.01 46.0666C1182.5 46.0666 1184.07 47.6908 1184.45 48.5873C1184.7 49.1688 1185.18 49.9442 1185.52 50.3104C1186.34 51.191 1188.07 52.2993 1188.64 52.2993C1189.04 52.2993 1189.07 52.1836 1188.94 51.0435C1188.85 50.3528 1188.88 49.7323 1188.99 49.6645C1189.36 49.4348 1191.21 50.3069 1192.15 51.1585C1192.67 51.6248 1193.68 52.228 1194.41 52.499C1195.68 52.9745 1197.79 53.1744 1197.78 52.8187C1197.78 52.7233 1197.52 52.1936 1197.2 51.6409C1196.89 51.0883 1196.63 50.5548 1196.63 50.4551C1196.63 50.1247 1198.7 49.9525 1199.5 50.2166C1200.98 50.7067 1202.72 50.8692 1204.12 50.6474C1206.13 50.3297 1206.35 50.0059 1205.18 49.0809C1204.66 48.6711 1204.24 48.2083 1204.24 48.0518C1204.24 47.5449 1205.93 46.8203 1207.4 46.6956C1208.95 46.5638 1210.88 45.7803 1211.94 44.853C1212.75 44.1393 1212.6 43.8477 1211.33 43.6346C1210.21 43.4477 1209.94 43.1626 1210.27 42.5388C1210.75 41.6316 1211.52 40.9631 1212.66 40.4375C1214.05 39.8036 1215.34 38.582 1216 37.2976C1216.25 36.7983 1216.46 36.319 1216.46 36.2329C1216.46 36.1468 1215.84 36.1327 1215.08 36.2018C1213.89 36.3093 1213.69 36.2724 1213.69 35.9453C1213.7 35.0046 1214.27 33.6438 1215.01 32.8213C1215.94 31.7911 1216.62 30.3873 1216.89 28.9016C1217.19 27.3303 1216.92 27.129 1215.55 27.882C1214.92 28.228 1214.36 28.4351 1214.3 28.3421C1213.87 27.6519 1213.91 26.286 1214.4 24.5833C1214.88 22.9175 1214.91 22.584 1214.68 21.2081C1214.53 20.3683 1214.25 19.5154 1214.05 19.3127C1213.66 18.9309 1213.56 19.0202 1212.16 20.8794C1211.95 21.1682 1211.8 21.0242 1211.3 20.035C1210.95 19.3399 1210.7 18.4577 1210.7 17.9196C1210.7 16.6767 1210.12 15.0211 1209.24 13.6915C1208.26 12.2217 1207.83 12.2621 1207.36 13.8683C1207.01 15.0687 1206.96 15.1264 1206.49 14.8731C1205.83 14.5209 1205.32 13.9006 1204.47 12.4165C1203.65 10.9874 1202.13 9.44652 1201.14 9.03308C1200.03 8.57139 1199.84 8.76992 1200.01 10.2118L1200.16 11.4738L1199.26 11.3205C1198.76 11.2362 1198.1 10.9724 1197.78 10.7342C1195.91 9.32671 1194.68 8.63672 1193.49 8.32717C1191.82 7.89203 1191.57 7.89157 1191.41 8.32209ZM1194.62 9.27108C1195.28 9.60164 1196.19 10.2152 1196.63 10.6347C1197.42 11.3775 1200.37 12.4994 1200.82 12.2238C1200.93 12.1584 1200.95 11.54 1200.86 10.8493C1200.76 9.96568 1200.8 9.59356 1200.98 9.59356C1201.52 9.59356 1203.29 11.4874 1203.88 12.694C1204.49 13.9489 1206.81 16.1601 1207.33 15.9897C1207.47 15.9442 1207.68 15.4175 1207.8 14.8189C1207.95 14.023 1208.11 13.7492 1208.37 13.7997C1209.03 13.9267 1209.79 15.7039 1209.94 17.4493C1210.04 18.6966 1210.26 19.444 1210.86 20.5738C1211.29 21.3907 1211.74 22.059 1211.84 22.059C1211.95 22.059 1212.38 21.6313 1212.79 21.1084C1213.5 20.2104 1213.56 20.1818 1213.87 20.589C1214.34 21.2271 1214.1 24.3349 1213.48 25.4963C1213.19 26.0237 1213.4 29.1509 1213.73 29.3557C1213.85 29.4249 1214.39 29.214 1214.95 28.8866C1215.51 28.5595 1216.03 28.2917 1216.1 28.2917C1216.17 28.2917 1216.23 28.5775 1216.23 28.9266C1216.22 29.8301 1215.28 31.7246 1214.34 32.7128C1213.8 33.2798 1213.41 34.0238 1213.14 34.9829C1212.65 36.7297 1212.74 37.1011 1213.62 36.8657C1214.61 36.6025 1215.18 36.6789 1215.26 37.0854C1215.36 37.6221 1213.5 39.4008 1212.18 40.03C1211 40.5926 1208.96 42.8202 1209.14 43.3546C1209.19 43.5054 1209.69 43.7408 1210.25 43.8777C1210.86 44.0264 1211.27 44.2581 1211.27 44.4534C1211.27 44.9957 1208.9 46.0252 1207.25 46.1986C1205.82 46.3489 1203.32 47.345 1202.98 47.9029C1202.9 48.0299 1203.25 48.4218 1203.76 48.7736C1205.24 49.7983 1204.95 50.2217 1202.76 50.2217C1202.1 50.2217 1201 50.0557 1200.31 49.8526C1198.53 49.3212 1194.7 49.7127 1195.69 50.3258C1195.93 50.4761 1196.63 51.7951 1196.63 52.104C1196.63 52.4232 1195.26 52.3261 1194.47 51.9509C1194.06 51.7591 1193.24 51.1975 1192.65 50.7028C1191.67 49.899 1189.24 48.8367 1188.37 48.8367C1188.11 48.8367 1188.08 49.0885 1188.2 50.1063C1188.35 51.2626 1188.32 51.3759 1187.91 51.3759C1187.31 51.3759 1185.42 49.3094 1184.89 48.0823C1184.49 47.1515 1182.32 45.1432 1181.71 45.1432C1181.58 45.1432 1181.32 45.6316 1181.13 46.2286C1180.94 46.8256 1180.68 47.3475 1180.56 47.3886C1180.15 47.5252 1179.16 45.0511 1178.92 43.2965C1178.76 42.1005 1178.45 41.142 1177.93 40.1972L1177.18 38.8294L1176.23 39.922C1175.71 40.5229 1175.21 40.9393 1175.12 40.8475C1174.81 40.5391 1174.95 37.3223 1175.32 36.2396C1175.59 35.4319 1175.64 34.7484 1175.52 33.4614C1175.34 31.5674 1175.21 31.4621 1173.98 32.2151C1173.05 32.7835 1172.65 32.801 1172.65 32.2738C1172.65 31.6611 1173.87 29.201 1174.62 28.3155C1175.32 27.488 1176.33 25.2393 1176.34 24.5179C1176.34 24.1324 1176.2 24.1068 1174.95 24.252C1174.19 24.3404 1173.57 24.3455 1173.57 24.2633C1173.57 24.1809 1173.72 23.8196 1173.91 23.46C1174.34 22.629 1175.41 21.725 1176.81 21.0165C1177.84 20.4934 1180.03 18.2566 1180.03 17.7261C1180.03 17.5922 1179.64 17.4166 1179.16 17.3358C1178.68 17.2547 1178.14 17.1003 1177.97 16.9925C1176.98 16.3796 1179.32 15.1287 1181.87 14.9103C1183.21 14.7956 1183.86 14.6072 1184.74 14.0763C1185.36 13.6991 1185.91 13.2693 1185.96 13.1213C1186.01 12.9735 1185.74 12.6917 1185.36 12.4952C1184.72 12.1656 1184.21 11.3295 1184.48 11.0603C1184.78 10.7584 1188.04 10.9438 1188.9 11.3115C1189.63 11.6222 1190.18 11.6734 1191.5 11.5536C1192.42 11.4698 1193.23 11.3002 1193.31 11.1767C1193.38 11.0529 1193.18 10.5446 1192.85 10.0469C1192.52 9.54901 1192.25 9.03562 1192.25 8.90589C1192.25 8.48183 1193.39 8.65796 1194.62 9.27108ZM1192.71 14.0059C1190.79 14.1968 1187.96 15.0423 1186.71 15.7954C1186.27 16.0631 1185.7 16.3764 1185.45 16.4916C1184.63 16.8602 1182.25 19.0821 1181.23 20.4184C1179.77 22.3372 1178.69 24.6844 1178.21 27.0221C1177.65 29.7029 1177.61 31.4644 1178.07 33.7327C1179.88 42.63 1188.27 48.4322 1197.25 47.0012C1202.23 46.2097 1207.01 42.7893 1209.19 38.4569C1210.87 35.1385 1211.03 34.4739 1211.03 30.6002C1211.03 27.2758 1210.98 26.9 1210.4 25.2984C1207.6 17.649 1200.65 13.2129 1192.71 14.0059ZM1198.33 14.8951C1200.51 15.4528 1201.37 15.8445 1203.39 17.1788C1207.85 20.1303 1210.53 25.1161 1210.54 30.4847C1210.54 34.7934 1208.88 38.9245 1206.01 41.7443C1204.5 43.2256 1201.92 45.1432 1201.43 45.1432C1201.32 45.1432 1200.8 45.3447 1200.26 45.591C1199.72 45.8373 1198.81 46.1681 1198.24 46.3263C1196.85 46.7115 1192.44 46.7143 1190.86 46.3309C1189.33 45.9569 1185.71 44.2378 1184.75 43.4292C1180.79 40.0757 1178.8 36.3209 1178.49 31.639C1178.19 27.0563 1179.38 23.5696 1182.56 19.7732C1184.59 17.3378 1188.05 15.3406 1191.36 14.6892C1193.24 14.3194 1196.45 14.4142 1198.33 14.8951ZM1194.26 30.3128C1189.98 34.5986 1186.48 38.1824 1186.48 38.2768C1186.48 38.8795 1187.86 37.6281 1194.82 30.6754C1201.7 23.8074 1202.86 22.5207 1202.21 22.5207C1202.12 22.5207 1198.54 26.0272 1194.26 30.3128ZM1188.88 23.5431C1188.49 23.7146 1187.93 24.1865 1187.64 24.5914C1186.07 26.8065 1188.86 29.9203 1191.26 28.6253C1193.67 27.3298 1193.45 24.3806 1190.88 23.4856C1189.92 23.1495 1189.77 23.1539 1188.88 23.5431ZM1191.05 24.0537C1192.04 24.3201 1192.54 26.0124 1191.99 27.231C1191.65 27.9656 1190.38 28.5835 1189.6 28.3887C1188.76 28.1766 1187.87 27.0163 1187.87 26.1325C1187.87 24.5235 1189.3 23.5856 1191.05 24.0537ZM1196.95 33.0009C1196.27 33.6789 1196.17 33.9391 1196.17 34.9116C1196.17 36.1833 1196.57 36.8994 1197.55 37.4114C1200.06 38.7085 1202.66 36.1261 1201.37 33.624C1200.88 32.6847 1200.03 32.2161 1198.8 32.2161C1197.9 32.2161 1197.62 32.334 1196.95 33.0009ZM1199.72 32.8982C1201.45 33.5582 1201.53 36.3684 1199.84 37.0702C1197.85 37.8971 1195.71 35.3195 1197.04 33.6888C1197.81 32.7384 1198.65 32.4917 1199.72 32.8982ZM1389.14 29.2249C1383.7 47.8124 1367.67 48.832 1351.64 54.2943C1338.22 39.6857 1328.41 30.6398 1333.85 12.0523C1339.29 -6.53521 1348.69 3.12031 1361.31 17.1189C1377.18 15.5662 1394.58 10.6374 1389.14 29.2249ZM498.138 28.2249C492.698 46.8124 476.666 47.832 460.644 53.2943C447.219 38.6857 437.41 29.6398 442.85 11.0523C448.291 -7.53521 457.694 2.12031 470.314 16.1189C486.175 14.5662 503.579 9.63737 498.138 28.2249ZM656.678 18.9243C655.808 35.5728 666.777 39.812 676.62 47.7532C687.474 36.2053 691.212 37.7412 696.611 19.8577C693.939 8.08559 691.483 10.5773 679.123 19.5819C668.409 14.9345 663.549 5.37454 656.678 18.9243Z" stroke="#BE9783" stroke-opacity="0.49"/>
</svg>
