<svg width="26" height="25" viewBox="0 0 26 25" fill="none" xmlns="http://www.w3.org/2000/svg">
<path d="M11.2729 0.0309696C5.05672 0.0309696 0 4.8932 0 10.8703C0 16.8475 5.05672 21.7097 11.2729 21.7097C13.1732 21.7097 15.0413 21.2761 16.6195 20.44C16.746 20.5862 16.8861 20.721 17.0382 20.8426L20.2591 23.9395C20.5565 24.2613 20.9192 24.5212 21.3248 24.7034C21.7305 24.8855 22.1706 24.986 22.6181 24.9986C23.0656 25.0113 23.5111 24.9359 23.9272 24.777C24.3433 24.6181 24.7212 24.3792 25.0378 24.0748C25.3543 23.7704 25.6029 23.407 25.7681 23.0069C25.9333 22.6068 26.0118 22.1784 25.9986 21.7481C25.9854 21.3179 25.8809 20.8947 25.6915 20.5046C25.5021 20.1146 25.2317 19.7659 24.8971 19.4799L21.6763 16.3829C21.5194 16.232 21.3467 16.0971 21.1609 15.9803C22.0306 14.4628 22.5781 12.6975 22.5781 10.8394C22.5781 4.86223 17.5214 0 11.3052 0L11.2729 0.0309696ZM11.2729 3.12793C15.7499 3.12793 19.325 6.56556 19.325 10.8703C19.325 12.9143 18.552 14.8035 17.1993 16.1971C17.1671 16.2281 17.1349 16.2591 17.1027 16.29C16.9505 16.4116 16.8104 16.5463 16.684 16.6926C15.2668 17.9314 13.3343 18.6437 11.2407 18.6437C6.76377 18.6437 3.18863 15.2061 3.18863 10.9013C3.18863 6.59653 6.76377 3.1589 11.2407 3.1589L11.2729 3.12793Z" fill="#FFA06F"/>
</svg>
