<svg width="17" height="16" viewBox="0 0 17 16" fill="none" xmlns="http://www.w3.org/2000/svg">
<path d="M0 0H17V16H0V0Z" fill="white" fill-opacity="0.01"/>
<path d="M8.5 14.6667C11.4165 14.6667 13.8124 12.4914 13.8124 9.69938C13.8124 9.01394 13.7754 8.27918 13.3717 7.13721C12.9681 5.99528 12.8867 5.84788 12.4599 5.14264C12.2775 6.58181 11.3018 7.18161 11.0539 7.36088C11.0539 7.17438 10.4637 5.11198 9.56873 3.87798C8.69019 2.66668 7.49537 1.87198 6.79479 1.33334C6.79479 2.3566 6.48901 3.87798 6.05108 4.65314C5.61315 5.42831 5.53091 5.45654 4.9839 6.03341C4.43693 6.61028 4.18586 6.78844 3.72845 7.48838C3.27107 8.18834 3.1875 9.12061 3.1875 9.80604C3.1875 12.5981 5.58354 14.6667 8.5 14.6667Z" fill="#E08A5C" stroke="#272726" stroke-width="1.5" stroke-linejoin="round"/>
</svg>
