<svg width="50" height="50" viewBox="0 0 50 50" fill="none" xmlns="http://www.w3.org/2000/svg">
  <path fill-rule="evenodd" clip-rule="evenodd" d="M25.1325 1.41231C25.8675 1.7796 26.8727 2.46135 27.3659 2.9274C28.2394 3.75279 31.5269 4.99933 32.0219 4.69308C32.139 4.62049 32.1613 3.93336 32.0711 3.16594C31.9558 2.18409 31.9952 1.77062 32.2046 1.77062C32.7995 1.77062 34.7616 3.87488 35.417 5.21555C36.0983 6.60984 38.6738 9.06676 39.2554 8.87747C39.4099 8.82694 39.6428 8.24163 39.7733 7.57655C39.9465 6.69217 40.1179 6.38797 40.4105 6.44414C41.1409 6.58521 41.9888 8.55994 42.1512 10.4993C42.2673 11.8851 42.513 12.7156 43.1789 13.9709C43.6603 14.8786 44.1523 15.6211 44.2719 15.6211C44.3916 15.6211 44.8656 15.1459 45.325 14.5649C46.1144 13.5672 46.1805 13.5353 46.5192 13.9878C47.0498 14.6967 46.7747 18.1499 46.0849 19.4403C45.7716 20.0264 46.0034 23.501 46.3711 23.7285C46.4956 23.8055 47.1047 23.5711 47.7245 23.2074C48.3442 22.8439 48.9174 22.5464 48.9979 22.5464C49.0786 22.5464 49.1434 22.8639 49.1418 23.2517C49.1383 24.2556 48.0883 26.3607 47.0429 27.4587C46.4436 28.0886 46.0058 28.9153 45.707 29.981C45.1631 31.9219 45.2699 32.3346 46.2486 32.073C47.3435 31.7806 47.9748 31.8655 48.0624 32.3171C48.1782 32.9135 46.1144 34.8897 44.6457 35.5889C43.3329 36.214 41.0682 38.6891 41.266 39.2829C41.3216 39.4504 41.8778 39.712 42.5015 39.8641C43.1791 40.0293 43.6357 40.2868 43.6357 40.5038C43.6357 41.1063 40.9964 42.2503 39.1619 42.4429C37.5741 42.6099 34.8019 43.7166 34.4191 44.3366C34.332 44.4776 34.7227 44.9132 35.2874 45.304C36.931 46.4426 36.6077 46.913 34.1813 46.913C33.4434 46.913 32.2189 46.7286 31.4603 46.5029C29.4738 45.9124 25.2198 46.3474 26.3205 47.0287C26.5903 47.1957 27.3659 48.6612 27.3659 49.0044C27.3659 49.3592 25.8406 49.2512 24.9628 48.8344C24.5147 48.6212 23.6041 47.9972 22.9395 47.4475C21.86 46.5544 19.1564 45.3741 18.191 45.3741C17.8989 45.3741 17.8618 45.6539 18.0029 46.7848C18.1633 48.0695 18.1346 48.1955 17.6832 48.1955C17.0155 48.1955 14.9081 45.8994 14.3242 44.5359C13.8814 43.5017 11.4661 41.2702 10.7894 41.2702C10.6469 41.2702 10.3572 41.8129 10.1458 42.4762C9.93439 43.1395 9.64948 43.7194 9.51266 43.7651C9.05736 43.9169 7.95434 41.1679 7.68839 39.2183C7.50724 37.8894 7.16801 36.8245 6.59126 35.7746L5.75625 34.2549L4.70448 35.4689C4.12568 36.1365 3.56892 36.5993 3.46694 36.4972C3.12489 36.1545 3.27709 32.5803 3.68498 31.3774C3.98937 30.4799 4.04497 29.7204 3.91123 28.2905C3.71419 26.186 3.56969 26.069 2.19867 26.9057C1.16432 27.5372 0.719265 27.5567 0.719521 26.9708C0.719778 26.2901 2.0826 23.5567 2.91198 22.5728C3.68703 21.6533 4.81567 19.1548 4.81747 18.3533C4.81875 17.9249 4.6704 17.8965 3.28144 18.0578C2.43592 18.156 1.74414 18.1617 1.74414 18.0704C1.74414 17.9788 1.91298 17.5774 2.11924 17.1778C2.59632 16.2544 3.78773 15.25 5.33938 14.4628C6.48519 13.8816 8.91823 11.3962 8.91823 10.8068C8.91823 10.658 8.48343 10.4628 7.95229 10.3731C7.42089 10.283 6.8275 10.1114 6.63379 9.99167C5.53308 9.31069 8.13728 7.92076 10.968 7.67812C12.4556 7.55064 13.1745 7.34135 14.1515 6.75142C14.8456 6.33231 15.4584 5.85473 15.513 5.69032C15.5679 5.52616 15.2676 5.21299 14.8458 4.99471C14.1387 4.62845 13.5678 3.69943 13.8666 3.40037C14.2014 3.06488 17.8269 3.27084 18.7826 3.67943C19.59 4.02467 20.2015 4.08161 21.6633 3.94849C22.684 3.85538 23.5885 3.66686 23.6733 3.52964C23.7581 3.39216 23.5283 2.82737 23.1627 2.27437C22.797 1.72112 22.4978 1.15069 22.4978 1.00654C22.4978 0.535366 23.7689 0.731066 25.1325 1.41231ZM16.3485 8.66151C17.7355 7.82483 20.8823 6.88531 23.0079 6.67319C31.8343 5.79214 39.5555 10.7211 42.6629 19.2205C43.3134 21 43.3631 21.4176 43.3624 25.1113C43.3616 29.4155 43.1894 30.1539 41.3264 33.841C38.8947 38.6548 33.5835 42.4552 28.0592 43.3347C18.0737 44.9247 8.75374 38.4778 6.74576 28.5919C6.23384 26.0716 6.27304 24.1143 6.89488 21.1357C7.43755 18.5382 8.63229 15.9302 10.2567 13.7982C11.3879 12.3134 14.0375 9.8447 14.9393 9.43508C15.2212 9.3071 15.8553 8.95904 16.3485 8.66151Z" fill="#FFA06E"/>
  <path fill-rule="evenodd" clip-rule="evenodd" d="M29.2535 7.66119C31.6734 8.28088 32.6389 8.71614 34.8803 10.1987C39.8383 13.4781 42.8133 19.0178 42.8199 24.983C42.8253 29.7704 40.9795 34.3606 37.7888 37.4936C36.1129 39.1395 33.2441 41.2702 32.7039 41.2702C32.5833 41.2702 31.996 41.4941 31.3985 41.7678C30.8013 42.0415 29.7936 42.409 29.1594 42.5847C27.6124 43.0128 22.7099 43.0159 20.9605 42.5899C19.2543 42.1743 15.2314 40.2643 14.1707 39.3658C9.77092 35.6397 7.5549 31.4676 7.21259 26.2655C6.87746 21.1736 8.20518 17.2996 11.7312 13.0814C13.9934 10.3754 17.8356 8.15622 21.5121 7.4324C23.5993 7.0215 27.1668 7.12692 29.2535 7.66119ZM16.0923 33.6409C16.0923 33.536 19.983 29.554 24.7381 24.792C29.4935 20.0302 33.4644 16.1341 33.5625 16.1341C34.291 16.1341 32.9955 17.5638 25.3533 25.1949C17.6168 32.9202 16.0923 34.3106 16.0923 33.6409ZM17.3788 18.4348C17.6988 17.9849 18.3186 17.4607 18.756 17.2701C19.7488 16.8377 19.9128 16.8328 20.9822 17.2062C23.8322 18.2007 24.0743 21.4776 21.404 22.917C18.7352 24.3559 15.6281 20.8961 17.3788 18.4348ZM26.8535 29.9018C26.8535 28.8212 26.9721 28.5321 27.7246 27.7788C28.4648 27.0378 28.7743 26.9067 29.7833 26.9067C31.1446 26.9067 32.0924 27.4274 32.6314 28.4711C34.0675 31.2512 31.1779 34.1205 28.3936 32.6793C27.2947 32.1104 26.8535 31.3148 26.8535 29.9018Z" fill="#3098A1" fill-opacity="0.58"/>
  <path fill-rule="evenodd" clip-rule="evenodd" d="M18.756 17.2701C18.3186 17.4607 17.6988 17.9849 17.3788 18.4348C15.6281 20.8961 18.7352 24.3559 21.404 22.917C24.0743 21.4776 23.8322 18.2007 20.9822 17.2062C19.9128 16.8328 19.7488 16.8377 18.756 17.2701ZM22.2059 21.3678C22.8224 20.0138 22.2667 18.1335 21.1629 17.8375C19.2236 17.3173 17.6296 18.3594 17.6296 20.1472C17.6296 21.1293 18.6222 22.4184 19.5602 22.6541C20.4224 22.8706 21.8344 22.184 22.2059 21.3678Z" fill="#FFA06F"/>
  <path fill-rule="evenodd" clip-rule="evenodd" d="M27.7246 27.7788C26.9721 28.5321 26.8535 28.8212 26.8535 29.9018C26.8535 31.3148 27.2947 32.1104 28.3936 32.6793C31.1779 34.1205 34.0675 31.2512 32.6314 28.4711C32.0924 27.4274 31.1446 26.9067 29.7833 26.9067C28.7743 26.9067 28.4648 27.0378 27.7246 27.7788ZM30.9355 32.3002C32.8159 31.5205 32.7211 28.398 30.7949 27.6647C29.6081 27.213 28.6798 27.4872 27.8199 28.5431C26.3449 30.355 28.72 33.219 30.9355 32.3002Z" fill="#FFA06F"/>
  <path d="M24.7381 24.792C19.983 29.554 16.0923 33.536 16.0923 33.6409C16.0923 34.3106 17.6168 32.9202 25.3533 25.1949C32.9955 17.5638 34.291 16.1341 33.5625 16.1341C33.4644 16.1341 29.4935 20.0302 24.7381 24.792Z" fill="#FFA06F"/>
  <path fill-rule="evenodd" clip-rule="evenodd" d="M21.5664 0.357872C21.4857 0.568195 21.6622 1.15197 21.9587 1.65495C22.7519 3.0005 22.6643 3.22365 21.2807 3.38267C20.4288 3.48065 19.6025 3.36728 18.5264 3.00434C16.5991 2.35491 13.2604 2.43955 12.556 3.15593C12.1461 3.57273 12.1617 3.63377 12.824 4.20985C13.2109 4.54611 13.7187 4.92854 13.9527 5.05961C15.0767 5.68955 12.8386 7.15693 10.7543 7.15693C9.17573 7.15693 7.68608 7.67504 6.20642 8.73897C4.78467 9.76108 4.82541 10.2707 6.35836 10.6411C6.99122 10.794 7.53773 11.0825 7.57309 11.2823C7.67404 11.8574 6.33914 13.1827 4.94404 13.8921C2.89968 14.9317 0.722595 17.3255 0.72029 18.5361C0.719265 18.9655 0.861466 18.9968 2.10387 18.8414C2.89891 18.7421 3.55201 18.7714 3.63784 18.9104C3.93864 19.3972 3.04521 21.5643 2.12231 22.5869C0.965234 23.8691 0.297019 25.3252 0.0669355 27.0663C-0.154949 28.7442 0.127915 28.9204 1.62935 28.0396C2.45283 27.5564 2.88354 27.4318 3.07339 27.6218C3.40007 27.9488 3.20714 30.4781 2.68445 32.7139C2.40851 33.8948 2.37853 34.6327 2.56531 35.6636C2.98295 37.9679 3.52792 38.2262 4.64324 36.648C5.03986 36.0865 5.44341 35.6279 5.54 35.6282C6.04578 35.631 7.10447 38.4311 7.20875 40.0416C7.32174 41.784 7.90617 43.1521 9.14601 44.5751C9.83191 45.3623 10.2885 45.0268 10.6869 43.4427C10.8455 42.812 11.0436 42.2962 11.1268 42.2962C11.6636 42.2962 13.4056 44.1008 13.8307 45.0971C14.1061 45.7432 14.6414 46.6047 15.0198 47.0115C15.9299 47.99 17.86 49.2214 18.4836 49.2214C18.9353 49.2214 18.9661 49.0929 18.8175 47.8261C18.7273 47.0587 18.7531 46.3692 18.8749 46.2938C19.2876 46.0386 21.3397 47.0077 22.3904 47.9538C22.9656 48.472 24.094 49.1422 24.8983 49.4433C26.3088 49.9717 28.6503 50.1938 28.6439 49.7985C28.6421 49.6926 28.3539 49.104 28.0034 48.4899C27.6529 47.8759 27.3659 47.2831 27.3659 47.1723C27.3659 46.8053 29.6637 46.6139 30.5515 46.9074C32.2 47.4519 34.1388 47.6325 35.693 47.386C37.919 47.033 38.1611 46.6732 36.8647 45.6454C36.2907 45.1902 35.8211 44.6759 35.8211 44.502C35.8211 43.9387 37.6951 43.1336 39.329 42.9951C41.0551 42.8487 43.1997 41.9781 44.3729 40.9478C45.2755 40.1547 45.1141 39.8308 43.6985 39.594C42.4571 39.3863 42.151 39.0695 42.5214 38.3765C43.0603 37.3685 43.9063 36.6257 45.1807 36.0416C46.7173 35.3373 48.1593 33.98 48.8864 32.5529C49.1693 31.9981 49.4006 31.4656 49.4006 31.3699C49.4006 31.2743 48.7088 31.2586 47.8633 31.3353C46.5471 31.4548 46.3263 31.4138 46.3276 31.0503C46.3309 30.0051 46.9694 28.4931 47.7931 27.5792C48.8252 26.4345 49.5728 24.8748 49.881 23.224C50.2067 21.4781 49.9123 21.2544 48.3893 22.0911C47.6896 22.4756 47.065 22.7057 47.0012 22.6023C46.5277 21.8354 46.5692 20.3177 47.1152 18.4259C47.6494 16.575 47.6794 16.2044 47.4178 14.6757C47.2581 13.7426 46.9435 12.7949 46.7185 12.5697C46.2945 12.1454 46.1754 12.2447 44.6268 14.3105C44.3862 14.6313 44.2222 14.4713 43.666 13.3722C43.275 12.5999 42.9952 11.6196 42.9952 11.0217C42.9952 9.64079 42.3603 7.80124 41.3741 6.32385C40.2839 4.69077 39.8078 4.73566 39.2898 6.52032C38.9024 7.85407 38.8468 7.9182 38.3213 7.63683C37.5908 7.24542 37.0238 6.55623 36.0755 4.90725C35.1626 3.31932 33.477 1.60724 32.3742 1.14786C31.1428 0.634883 30.9314 0.855466 31.1195 2.45751L31.284 3.85974L30.2858 3.68943C29.7367 3.59581 28.9993 3.30264 28.647 3.03795C26.565 1.47412 25.1981 0.70747 23.879 0.363516C22.0256 -0.119969 21.7496 -0.120483 21.5664 0.357872ZM27.3659 2.9274C26.8727 2.46135 25.8675 1.7796 25.1325 1.41231C23.7689 0.731066 22.4978 0.535366 22.4978 1.00654C22.4978 1.15069 22.797 1.72112 23.1627 2.27437C23.5283 2.82737 23.7581 3.39216 23.6733 3.52964C23.5885 3.66686 22.684 3.85538 21.6633 3.94849C20.2015 4.08161 19.59 4.02467 18.7826 3.67943C17.8269 3.27084 14.2014 3.06488 13.8666 3.40037C13.5678 3.69943 14.1387 4.62845 14.8458 4.99471C15.2676 5.21299 15.5679 5.52616 15.513 5.69032C15.4584 5.85473 14.8456 6.33231 14.1515 6.75142C13.1745 7.34135 12.4556 7.55064 10.968 7.67812C8.13728 7.92076 5.53308 9.31069 6.63379 9.99167C6.8275 10.1114 7.42089 10.283 7.95229 10.3731C8.48343 10.4628 8.91823 10.658 8.91823 10.8068C8.91823 11.3962 6.48519 13.8816 5.33938 14.4628C3.78773 15.25 2.59632 16.2544 2.11924 17.1778C1.91298 17.5774 1.74414 17.9788 1.74414 18.0704C1.74414 18.1617 2.43592 18.156 3.28144 18.0578C4.6704 17.8965 4.81875 17.9249 4.81747 18.3533C4.81567 19.1548 3.68703 21.6533 2.91198 22.5728C2.0826 23.5567 0.719778 26.2901 0.719521 26.9708C0.719265 27.5567 1.16432 27.5372 2.19867 26.9057C3.56969 26.069 3.71419 26.186 3.91123 28.2905C4.04497 29.7204 3.98937 30.4799 3.68498 31.3774C3.27709 32.5803 3.12489 36.1545 3.46694 36.4972C3.56892 36.5993 4.12568 36.1365 4.70448 35.4689L5.75625 34.2549L6.59126 35.7746C7.16801 36.8245 7.50724 37.8894 7.68839 39.2183C7.95434 41.1679 9.05736 43.9169 9.51266 43.7651C9.64948 43.7194 9.93439 43.1395 10.1458 42.4762C10.3572 41.8129 10.6469 41.2702 10.7894 41.2702C11.4661 41.2702 13.8814 43.5017 14.3242 44.5359C14.9081 45.8994 17.0155 48.1955 17.6832 48.1955C18.1346 48.1955 18.1633 48.0695 18.0029 46.7848C17.8618 45.6539 17.8989 45.3741 18.191 45.3741C19.1564 45.3741 21.86 46.5544 22.9395 47.4475C23.6041 47.9972 24.5147 48.6212 24.9628 48.8344C25.8406 49.2512 27.3659 49.3592 27.3659 49.0044C27.3659 48.6612 26.5903 47.1957 26.3205 47.0287C25.2198 46.3474 29.4738 45.9124 31.4603 46.5029C32.2189 46.7286 33.4434 46.913 34.1813 46.913C36.6077 46.913 36.931 46.4426 35.2874 45.304C34.7227 44.9132 34.332 44.4776 34.4191 44.3366C34.8019 43.7166 37.5741 42.6099 39.1619 42.4429C40.9964 42.2503 43.6357 41.1063 43.6357 40.5038C43.6357 40.2868 43.1791 40.0293 42.5015 39.8641C41.8778 39.712 41.3216 39.4504 41.266 39.2829C41.0682 38.6891 43.3329 36.214 44.6457 35.5889C46.1144 34.8897 48.1782 32.9135 48.0624 32.3171C47.9748 31.8655 47.3435 31.7806 46.2486 32.073C45.2699 32.3346 45.1631 31.9219 45.707 29.981C46.0058 28.9153 46.4436 28.0886 47.0429 27.4587C48.0883 26.3607 49.1383 24.2556 49.1418 23.2517C49.1434 22.8639 49.0786 22.5464 48.9979 22.5464C48.9174 22.5464 48.3442 22.8439 47.7245 23.2074C47.1047 23.5711 46.4956 23.8055 46.3711 23.7285C46.0034 23.501 45.7716 20.0264 46.0849 19.4403C46.7747 18.1499 47.0498 14.6967 46.5192 13.9878C46.1805 13.5353 46.1144 13.5672 45.325 14.5649C44.8656 15.1459 44.3916 15.6211 44.2719 15.6211C44.1523 15.6211 43.6603 14.8786 43.1789 13.9709C42.513 12.7156 42.2673 11.8851 42.1512 10.4993C41.9888 8.55994 41.1409 6.58521 40.4105 6.44414C40.1179 6.38797 39.9465 6.69217 39.7733 7.57655C39.6428 8.24163 39.4099 8.82694 39.2554 8.87747C38.6738 9.06676 36.0983 6.60984 35.417 5.21555C34.7616 3.87488 32.7995 1.77062 32.2046 1.77062C31.9952 1.77062 31.9558 2.18409 32.0711 3.16594C32.1613 3.93336 32.139 4.62049 32.0219 4.69308C31.5269 4.99933 28.2394 3.75279 27.3659 2.9274Z" fill="#E08A5C"/>
  <path fill-rule="evenodd" clip-rule="evenodd" d="M23.0079 6.67319C20.8823 6.88531 17.7355 7.82483 16.3485 8.66151C15.8553 8.95904 15.2212 9.3071 14.9393 9.43508C14.0375 9.8447 11.3879 12.3134 10.2567 13.7982C8.63229 15.9302 7.43755 18.5382 6.89488 21.1357C6.27304 24.1143 6.23384 26.0716 6.74576 28.5919C8.75374 38.4778 18.0737 44.9247 28.0592 43.3347C33.5835 42.4552 38.8947 38.6548 41.3264 33.841C43.1894 30.1539 43.3616 29.4155 43.3624 25.1113C43.3631 21.4176 43.3134 21 42.6629 19.2205C39.5555 10.7211 31.8343 5.79214 23.0079 6.67319ZM34.8803 10.1987C32.6389 8.71614 31.6734 8.28088 29.2535 7.66119C27.1668 7.12692 23.5993 7.0215 21.5121 7.4324C17.8356 8.15622 13.9934 10.3754 11.7312 13.0814C8.20518 17.2996 6.87746 21.1736 7.21259 26.2655C7.5549 31.4676 9.77092 35.6397 14.1707 39.3658C15.2314 40.2643 19.2543 42.1743 20.9605 42.5899C22.7099 43.0159 27.6124 43.0128 29.1594 42.5847C29.7936 42.409 30.8013 42.0415 31.3985 41.7678C31.996 41.4941 32.5833 41.2702 32.7039 41.2702C33.2441 41.2702 36.1129 39.1395 37.7888 37.4936C40.9795 34.3606 42.8253 29.7704 42.8199 24.983C42.8133 19.0178 39.8383 13.4781 34.8803 10.1987Z" fill="#F8D6C4"/>
</svg>
