<svg width="35" height="35" viewBox="0 0 35 35" fill="none" xmlns="http://www.w3.org/2000/svg">
<mask id="path-1-inside-1_172_289" fill="white">
<path fill-rule="evenodd" clip-rule="evenodd" d="M14.6388 0.590189C14.1218 1.79533 12.9123 4.55924 12.8938 4.57773C12.8833 4.58828 12.6078 4.45715 12.2817 4.28637C11.9556 4.1156 11.1477 3.69997 10.4865 3.36283C9.8252 3.02564 9.09731 2.65037 8.86896 2.52886C8.64061 2.40735 8.44023 2.32151 8.42366 2.33808C8.4071 2.35461 8.37659 3.47396 8.35584 4.82543C8.33509 6.17694 8.3045 7.29727 8.28789 7.31504C8.27124 7.33286 7.31633 7.26934 6.1659 7.17393C3.24219 6.93149 3.29487 6.93532 3.29487 6.96316C3.29487 6.97692 3.42699 7.32506 3.5885 7.73677C4.63732 10.4106 5.07371 11.5318 5.0852 11.582C5.0982 11.6387 4.95375 11.6881 1.54608 12.79L0.30935 13.1899L2.05083 14.9909C3.00867 15.9815 3.78559 16.8101 3.7774 16.8324C3.76515 16.8657 1.84795 18.5055 0.344752 19.7684C0.154965 19.9279 -0.000177967 20.0702 1.53222e-07 20.0847C0.000222803 20.0991 0.426019 20.2959 0.946264 20.522C3.40312 21.5896 4.56023 22.0968 4.57698 22.1135C4.58704 22.1236 4.42549 22.4588 4.21802 22.8586C4.01051 23.2582 3.57496 24.1064 3.25011 24.7434C2.92522 25.3803 2.57989 26.0481 2.48268 26.2272C2.38547 26.4063 2.31908 26.5661 2.3352 26.5822C2.35132 26.5983 3.47054 26.6293 4.82243 26.651C6.17427 26.6727 7.2954 26.7045 7.31379 26.7215C7.33223 26.7385 7.32764 26.9619 7.30355 27.2178C7.27951 27.4738 7.21912 28.1943 7.16938 28.819C7.11964 29.4437 7.04679 30.3417 7.00747 30.8145C6.96815 31.2874 6.94598 31.6842 6.95818 31.6965C6.97042 31.7087 7.99974 31.3181 9.24555 30.8286C10.4914 30.3389 11.5387 29.9321 11.5729 29.9244C11.6186 29.914 11.8379 30.5377 12.4027 32.2845C12.8248 33.5903 13.1776 34.6655 13.1866 34.6738C13.1955 34.6822 14.0043 33.9102 14.984 32.9584C15.9637 32.0065 16.788 31.232 16.8158 31.2371C16.8436 31.2424 17.5799 32.0884 18.452 33.1173C19.3241 34.1462 20.0536 34.9933 20.0731 34.9998C20.0927 35.0063 20.1919 34.816 20.2936 34.5768C20.6368 33.77 22.088 30.4508 22.105 30.4338C22.1143 30.4245 22.5498 30.6369 23.0728 30.9058C23.5957 31.1747 24.5929 31.6873 25.2887 32.0448C25.9845 32.4023 26.5656 32.683 26.5801 32.6685C26.5945 32.6541 26.6233 31.5365 26.6441 30.185C26.6648 28.8335 26.6958 27.7128 26.7128 27.6946C26.7299 27.6764 26.9634 27.6814 27.2317 27.7057C27.5001 27.73 28.2105 27.7895 28.8106 27.8379C29.4106 27.8863 30.2983 27.9589 30.7833 27.999C31.2682 28.0393 31.6749 28.0623 31.6869 28.0502C31.699 28.0381 31.3087 27.0086 30.8196 25.7622C30.3306 24.5159 29.924 23.4683 29.916 23.4341C29.9055 23.389 30.2013 23.2749 30.9926 23.0186C31.5926 22.8242 32.6725 22.4744 33.3923 22.2412L34.7011 21.8173L34.1468 21.2537C32.6567 19.7384 31.2087 18.2158 31.2222 18.1786C31.2347 18.1447 32.9744 16.6567 34.6552 15.2425C34.845 15.0828 35.0001 14.9402 35 14.9258C34.9998 14.9113 33.9678 14.4504 32.7067 13.9016C31.4455 13.3527 30.4137 12.8985 30.4137 12.8922C30.4137 12.8859 30.9246 11.8833 31.5491 10.6643C32.1735 9.44529 32.6737 8.43716 32.6605 8.42402C32.6474 8.41088 31.5303 8.38188 30.1781 8.35961C28.826 8.33734 27.7045 8.30536 27.6861 8.28852C27.6677 8.27173 27.6724 8.04857 27.6966 7.79263C27.8036 6.65969 28.0589 3.33116 28.0402 3.31245C28.0288 3.30105 27.0002 3.69231 25.7544 4.18188C24.5085 4.67149 23.4611 5.07834 23.4267 5.08609C23.3635 5.1003 23.3469 5.05197 22.2133 1.54344L21.8125 0.302978L21.2037 0.897577C19.3097 2.74716 18.2103 3.79266 18.1736 3.77917C18.1395 3.76661 16.5151 1.86687 15.2374 0.345205C15.078 0.155364 14.935 0 14.9198 0C14.9044 0 14.778 0.265563 14.6388 0.590189ZM9.92241 12.3132C10.151 12.3719 10.3438 12.4266 10.3509 12.4348C10.3757 12.4632 11.6182 16.2387 11.771 16.7501C11.8556 17.0331 11.9706 17.474 12.0266 17.7301C12.1299 18.2025 12.2009 18.378 12.2009 18.161C12.2009 17.9476 12.5056 16.5827 12.9321 14.8854C13.1618 13.9711 13.3584 13.2146 13.3689 13.2041C13.3863 13.1866 14.0768 13.3535 14.1053 13.3821C14.116 13.3927 12.6296 19.3519 12.5809 19.4942C12.5603 19.5541 11.8547 19.3969 11.7736 19.3144C11.7467 19.287 11.6829 19.1344 11.6317 18.9751C11.5805 18.8159 11.2671 17.8437 10.9352 16.8148C10.6034 15.7859 10.2429 14.5938 10.1342 14.1657C9.99669 13.6243 9.92882 13.4209 9.91123 13.4975C9.89729 13.5582 9.84461 13.8082 9.79416 14.0532C9.66707 14.6702 8.72313 18.5003 8.68875 18.5386C8.67334 18.5557 8.49491 18.528 8.29221 18.4771C7.99675 18.4028 7.92795 18.3701 7.94519 18.3123C7.95703 18.2726 8.29871 16.9173 8.70451 15.3004C9.43347 12.3957 9.48272 12.2038 9.49866 12.2055C9.50316 12.206 9.69384 12.2545 9.92241 12.3132ZM17.2105 14.1468C18.0677 14.3594 18.7854 14.5478 18.8053 14.5655C18.8415 14.5978 18.7217 15.1394 18.6654 15.1977C18.649 15.2148 18.0768 15.0887 17.3941 14.9176C16.7113 14.7465 16.1483 14.6123 16.143 14.6194C16.1156 14.6557 15.663 16.5284 15.6784 16.5414C15.6883 16.5498 16.2075 16.6826 16.832 16.8365C17.4565 16.9905 17.9838 17.1311 18.0037 17.1489C18.0343 17.1762 17.9291 17.6905 17.875 17.7781C17.8652 17.7939 17.351 17.6793 16.7323 17.5236C16.1136 17.3678 15.5771 17.2398 15.5399 17.2392C15.4886 17.2382 15.4071 17.5 15.2006 18.3291L14.9288 19.4202L15.09 19.4627C15.1786 19.4861 15.7685 19.6345 16.4007 19.7924C17.033 19.9504 17.5594 20.0888 17.5706 20.1C17.6082 20.1376 17.4387 20.7568 17.3912 20.756C17.303 20.7544 14.0159 19.9147 13.9878 19.8866C13.9724 19.8711 14.228 18.7929 14.5558 17.4904C15.5587 13.5047 15.5013 13.7149 15.5809 13.7388C15.62 13.7506 16.3533 13.9341 17.2105 14.1468ZM19.9541 14.836C20.1596 14.8868 20.342 14.9423 20.3596 14.9593C20.3917 14.9903 20.3307 19.0591 20.2843 19.9773L20.2596 20.4673L20.4414 20.111C20.825 19.3594 21.217 18.633 22.0381 17.1524C22.5058 16.3092 22.8952 15.6125 22.9034 15.6043C22.9116 15.596 23.1019 15.6322 23.3263 15.6845L23.7342 15.7796L23.7328 17.2549C23.7315 18.791 23.6699 21.0071 23.6224 21.2296C23.6073 21.3003 23.7663 21.023 23.9757 20.6133C24.1851 20.2037 24.6501 19.3317 25.009 18.6757C25.3679 18.0197 25.7813 17.2625 25.9276 16.993C26.0739 16.7235 26.21 16.4854 26.2299 16.4639C26.2505 16.4416 26.4411 16.4679 26.6713 16.5248L27.0765 16.625L26.981 16.7867C26.8935 16.9349 25.8868 18.6847 24.4024 21.2691C24.0787 21.8325 23.8001 22.3085 23.7831 22.3268C23.7661 22.3451 23.5729 22.315 23.3536 22.26L22.9549 22.1599L22.9421 21.0909C22.9286 19.9644 23.0002 16.9377 23.0448 16.748C23.0592 16.6868 22.9302 16.9115 22.7581 17.2474C22.4761 17.7977 20.4667 21.4028 20.3998 21.4784C20.3846 21.4955 20.1918 21.4642 19.9714 21.4087L19.5706 21.308L19.5592 18.0258C19.5529 16.2206 19.5552 14.7436 19.5642 14.7436C19.5732 14.7436 19.7487 14.7852 19.9541 14.836Z"/>
</mask>
<path fill-rule="evenodd" clip-rule="evenodd" d="M14.6388 0.590189C14.1218 1.79533 12.9123 4.55924 12.8938 4.57773C12.8833 4.58828 12.6078 4.45715 12.2817 4.28637C11.9556 4.1156 11.1477 3.69997 10.4865 3.36283C9.8252 3.02564 9.09731 2.65037 8.86896 2.52886C8.64061 2.40735 8.44023 2.32151 8.42366 2.33808C8.4071 2.35461 8.37659 3.47396 8.35584 4.82543C8.33509 6.17694 8.3045 7.29727 8.28789 7.31504C8.27124 7.33286 7.31633 7.26934 6.1659 7.17393C3.24219 6.93149 3.29487 6.93532 3.29487 6.96316C3.29487 6.97692 3.42699 7.32506 3.5885 7.73677C4.63732 10.4106 5.07371 11.5318 5.0852 11.582C5.0982 11.6387 4.95375 11.6881 1.54608 12.79L0.30935 13.1899L2.05083 14.9909C3.00867 15.9815 3.78559 16.8101 3.7774 16.8324C3.76515 16.8657 1.84795 18.5055 0.344752 19.7684C0.154965 19.9279 -0.000177967 20.0702 1.53222e-07 20.0847C0.000222803 20.0991 0.426019 20.2959 0.946264 20.522C3.40312 21.5896 4.56023 22.0968 4.57698 22.1135C4.58704 22.1236 4.42549 22.4588 4.21802 22.8586C4.01051 23.2582 3.57496 24.1064 3.25011 24.7434C2.92522 25.3803 2.57989 26.0481 2.48268 26.2272C2.38547 26.4063 2.31908 26.5661 2.3352 26.5822C2.35132 26.5983 3.47054 26.6293 4.82243 26.651C6.17427 26.6727 7.2954 26.7045 7.31379 26.7215C7.33223 26.7385 7.32764 26.9619 7.30355 27.2178C7.27951 27.4738 7.21912 28.1943 7.16938 28.819C7.11964 29.4437 7.04679 30.3417 7.00747 30.8145C6.96815 31.2874 6.94598 31.6842 6.95818 31.6965C6.97042 31.7087 7.99974 31.3181 9.24555 30.8286C10.4914 30.3389 11.5387 29.9321 11.5729 29.9244C11.6186 29.914 11.8379 30.5377 12.4027 32.2845C12.8248 33.5903 13.1776 34.6655 13.1866 34.6738C13.1955 34.6822 14.0043 33.9102 14.984 32.9584C15.9637 32.0065 16.788 31.232 16.8158 31.2371C16.8436 31.2424 17.5799 32.0884 18.452 33.1173C19.3241 34.1462 20.0536 34.9933 20.0731 34.9998C20.0927 35.0063 20.1919 34.816 20.2936 34.5768C20.6368 33.77 22.088 30.4508 22.105 30.4338C22.1143 30.4245 22.5498 30.6369 23.0728 30.9058C23.5957 31.1747 24.5929 31.6873 25.2887 32.0448C25.9845 32.4023 26.5656 32.683 26.5801 32.6685C26.5945 32.6541 26.6233 31.5365 26.6441 30.185C26.6648 28.8335 26.6958 27.7128 26.7128 27.6946C26.7299 27.6764 26.9634 27.6814 27.2317 27.7057C27.5001 27.73 28.2105 27.7895 28.8106 27.8379C29.4106 27.8863 30.2983 27.9589 30.7833 27.999C31.2682 28.0393 31.6749 28.0623 31.6869 28.0502C31.699 28.0381 31.3087 27.0086 30.8196 25.7622C30.3306 24.5159 29.924 23.4683 29.916 23.4341C29.9055 23.389 30.2013 23.2749 30.9926 23.0186C31.5926 22.8242 32.6725 22.4744 33.3923 22.2412L34.7011 21.8173L34.1468 21.2537C32.6567 19.7384 31.2087 18.2158 31.2222 18.1786C31.2347 18.1447 32.9744 16.6567 34.6552 15.2425C34.845 15.0828 35.0001 14.9402 35 14.9258C34.9998 14.9113 33.9678 14.4504 32.7067 13.9016C31.4455 13.3527 30.4137 12.8985 30.4137 12.8922C30.4137 12.8859 30.9246 11.8833 31.5491 10.6643C32.1735 9.44529 32.6737 8.43716 32.6605 8.42402C32.6474 8.41088 31.5303 8.38188 30.1781 8.35961C28.826 8.33734 27.7045 8.30536 27.6861 8.28852C27.6677 8.27173 27.6724 8.04857 27.6966 7.79263C27.8036 6.65969 28.0589 3.33116 28.0402 3.31245C28.0288 3.30105 27.0002 3.69231 25.7544 4.18188C24.5085 4.67149 23.4611 5.07834 23.4267 5.08609C23.3635 5.1003 23.3469 5.05197 22.2133 1.54344L21.8125 0.302978L21.2037 0.897577C19.3097 2.74716 18.2103 3.79266 18.1736 3.77917C18.1395 3.76661 16.5151 1.86687 15.2374 0.345205C15.078 0.155364 14.935 0 14.9198 0C14.9044 0 14.778 0.265563 14.6388 0.590189ZM9.92241 12.3132C10.151 12.3719 10.3438 12.4266 10.3509 12.4348C10.3757 12.4632 11.6182 16.2387 11.771 16.7501C11.8556 17.0331 11.9706 17.474 12.0266 17.7301C12.1299 18.2025 12.2009 18.378 12.2009 18.161C12.2009 17.9476 12.5056 16.5827 12.9321 14.8854C13.1618 13.9711 13.3584 13.2146 13.3689 13.2041C13.3863 13.1866 14.0768 13.3535 14.1053 13.3821C14.116 13.3927 12.6296 19.3519 12.5809 19.4942C12.5603 19.5541 11.8547 19.3969 11.7736 19.3144C11.7467 19.287 11.6829 19.1344 11.6317 18.9751C11.5805 18.8159 11.2671 17.8437 10.9352 16.8148C10.6034 15.7859 10.2429 14.5938 10.1342 14.1657C9.99669 13.6243 9.92882 13.4209 9.91123 13.4975C9.89729 13.5582 9.84461 13.8082 9.79416 14.0532C9.66707 14.6702 8.72313 18.5003 8.68875 18.5386C8.67334 18.5557 8.49491 18.528 8.29221 18.4771C7.99675 18.4028 7.92795 18.3701 7.94519 18.3123C7.95703 18.2726 8.29871 16.9173 8.70451 15.3004C9.43347 12.3957 9.48272 12.2038 9.49866 12.2055C9.50316 12.206 9.69384 12.2545 9.92241 12.3132ZM17.2105 14.1468C18.0677 14.3594 18.7854 14.5478 18.8053 14.5655C18.8415 14.5978 18.7217 15.1394 18.6654 15.1977C18.649 15.2148 18.0768 15.0887 17.3941 14.9176C16.7113 14.7465 16.1483 14.6123 16.143 14.6194C16.1156 14.6557 15.663 16.5284 15.6784 16.5414C15.6883 16.5498 16.2075 16.6826 16.832 16.8365C17.4565 16.9905 17.9838 17.1311 18.0037 17.1489C18.0343 17.1762 17.9291 17.6905 17.875 17.7781C17.8652 17.7939 17.351 17.6793 16.7323 17.5236C16.1136 17.3678 15.5771 17.2398 15.5399 17.2392C15.4886 17.2382 15.4071 17.5 15.2006 18.3291L14.9288 19.4202L15.09 19.4627C15.1786 19.4861 15.7685 19.6345 16.4007 19.7924C17.033 19.9504 17.5594 20.0888 17.5706 20.1C17.6082 20.1376 17.4387 20.7568 17.3912 20.756C17.303 20.7544 14.0159 19.9147 13.9878 19.8866C13.9724 19.8711 14.228 18.7929 14.5558 17.4904C15.5587 13.5047 15.5013 13.7149 15.5809 13.7388C15.62 13.7506 16.3533 13.9341 17.2105 14.1468ZM19.9541 14.836C20.1596 14.8868 20.342 14.9423 20.3596 14.9593C20.3917 14.9903 20.3307 19.0591 20.2843 19.9773L20.2596 20.4673L20.4414 20.111C20.825 19.3594 21.217 18.633 22.0381 17.1524C22.5058 16.3092 22.8952 15.6125 22.9034 15.6043C22.9116 15.596 23.1019 15.6322 23.3263 15.6845L23.7342 15.7796L23.7328 17.2549C23.7315 18.791 23.6699 21.0071 23.6224 21.2296C23.6073 21.3003 23.7663 21.023 23.9757 20.6133C24.1851 20.2037 24.6501 19.3317 25.009 18.6757C25.3679 18.0197 25.7813 17.2625 25.9276 16.993C26.0739 16.7235 26.21 16.4854 26.2299 16.4639C26.2505 16.4416 26.4411 16.4679 26.6713 16.5248L27.0765 16.625L26.981 16.7867C26.8935 16.9349 25.8868 18.6847 24.4024 21.2691C24.0787 21.8325 23.8001 22.3085 23.7831 22.3268C23.7661 22.3451 23.5729 22.315 23.3536 22.26L22.9549 22.1599L22.9421 21.0909C22.9286 19.9644 23.0002 16.9377 23.0448 16.748C23.0592 16.6868 22.9302 16.9115 22.7581 17.2474C22.4761 17.7977 20.4667 21.4028 20.3998 21.4784C20.3846 21.4955 20.1918 21.4642 19.9714 21.4087L19.5706 21.308L19.5592 18.0258C19.5529 16.2206 19.5552 14.7436 19.5642 14.7436C19.5732 14.7436 19.7487 14.7852 19.9541 14.836Z" fill="#F4C2A8" fill-opacity="0.68" stroke="#535353" stroke-width="3.6" mask="url(#path-1-inside-1_172_289)"/>
</svg>
