<svg width="34" height="34" viewBox="0 0 34 34" fill="none" xmlns="http://www.w3.org/2000/svg">
<path d="M17 32C25.2843 32 32 25.2843 32 17C32 8.71573 25.2843 2 17 2C8.71573 2 2 8.71573 2 17C2 25.2843 8.71573 32 17 32Z" fill="#F1D0BF" stroke="#535353" stroke-width="3"/>
<path d="M17 17C19.4853 17 21.5 14.9854 21.5 12.5C21.5 10.0147 19.4853 8 17 8C14.5146 8 12.5 10.0147 12.5 12.5C12.5 14.9854 14.5146 17 17 17Z" fill="#ECEFF0"/>
<path d="M26 28.5C25.5477 26.6801 24.1997 21.7862 23.364 20.3934C22.5282 19.0005 21.5361 17.8956 20.4442 17.1418C19.3522 16.388 18.1819 17.1418 17 17.1418C15.8181 17.1418 14.6478 16.388 13.5558 17.1418C12.4639 17.8956 11.4718 19.0005 10.636 20.3934C9.80031 21.7862 9.13738 23.4398 8.68508 25.2597C8.25544 26.9885 8.02387 27.0304 8.00175 28.7187L8.68508 29.2985C8.68508 29.2985 10.2988 30.5814 12 31C13.7012 31.4186 14.5 31.5 14.5 31.5C14.5 31.5 17 32 19.5 31.5C22 31 24.0513 30 24.0513 30L25.0256 29.5L26 28.5Z" fill="#ECEFF0"/>
<path d="M26 28.5L27.0743 29.5468L27.6571 28.9486L27.4557 28.1382L26 28.5ZM23.364 20.3934L24.6502 19.6216V19.6216L23.364 20.3934ZM20.4442 17.1418L19.592 18.3762L20.4442 17.1418ZM13.5558 17.1418L12.7037 15.9074L13.5558 17.1418ZM8.68508 25.2597L7.22937 24.8979H7.22937L8.68508 25.2597ZM8.00175 28.7187L6.50188 28.6991L6.49262 29.4055L7.03131 29.8625L8.00175 28.7187ZM8.68508 29.2985L7.71465 30.4423L7.7329 30.4578L7.75163 30.4727L8.68508 29.2985ZM14.5 31.5L14.7942 30.0291L14.7236 30.015L14.6521 30.0077L14.5 31.5ZM24.0513 30L24.7086 31.3483L24.7224 31.3415L24.7361 31.3345L24.0513 30ZM25.0256 29.5L25.7105 30.8345L25.9288 30.7225L26.1 30.5468L25.0256 29.5ZM27.0586 26.6203C26.8489 25.8188 26.0292 25.3391 25.2278 25.5488C24.4263 25.7585 23.9467 26.5782 24.1564 27.3797L27.0586 26.6203ZM27.4557 28.1382C27.2238 27.2051 26.7667 25.5005 26.2599 23.847C26.0066 23.0204 25.7367 22.1928 25.4728 21.4744C25.219 20.7837 24.9377 20.1008 24.6502 19.6216L22.0777 21.1651C22.2081 21.3823 22.4087 21.8336 22.6568 22.509C22.8948 23.1568 23.1469 23.9276 23.3916 24.726C23.8809 26.3226 24.3239 27.975 24.5443 28.8618L27.4557 28.1382ZM24.6502 19.6216C23.7285 18.0855 22.5992 16.8068 21.2963 15.9074L19.592 18.3762C20.473 18.9844 21.3279 19.9154 22.0777 21.1651L24.6502 19.6216ZM21.2963 15.9074C20.2809 15.2063 19.2442 15.2594 18.514 15.3787C18.1962 15.4306 17.795 15.5235 17.5876 15.5652C17.3237 15.6182 17.1449 15.6418 17 15.6418V18.6418C17.4461 18.6418 17.8567 18.5711 18.1788 18.5064C18.5574 18.4303 18.7386 18.3818 18.9977 18.3395C19.421 18.2703 19.5155 18.3234 19.592 18.3762L21.2963 15.9074ZM17 15.6418C16.8551 15.6418 16.6763 15.6182 16.4124 15.5652C16.205 15.5235 15.8038 15.4306 15.486 15.3787C14.7558 15.2594 13.7191 15.2063 12.7037 15.9074L14.408 18.3762C14.4845 18.3234 14.579 18.2703 15.0023 18.3395C15.2614 18.3818 15.4426 18.4303 15.8212 18.5064C16.1433 18.5711 16.5539 18.6418 17 18.6418V15.6418ZM12.7037 15.9074C11.4008 16.8068 10.2715 18.0855 9.3498 19.6216L11.9223 21.1651C12.6721 19.9154 13.527 18.9844 14.408 18.3762L12.7037 15.9074ZM9.3498 19.6216C8.42682 21.1599 7.71211 22.9555 7.22937 24.8979L10.1408 25.6215C10.5626 23.9241 11.1738 22.4126 11.9223 21.1651L9.3498 19.6216ZM7.22937 24.8979C7.12461 25.3194 7.03302 25.6313 6.95163 25.9001C6.87418 26.1558 6.78644 26.4335 6.71727 26.7116C6.56174 27.337 6.5 27.9513 6.5 29H9.5C9.5 28.0788 9.55465 27.7329 9.62859 27.4356C9.67416 27.2524 9.72942 27.0781 9.82283 26.7697C9.91229 26.4743 10.0194 26.1099 10.1408 25.6215L7.22937 24.8979ZM17 18.5C20.3138 18.5 23 15.8138 23 12.5H20C20 14.1569 18.6569 15.5 17 15.5V18.5ZM23 12.5C23 9.18631 20.3138 6.5 17 6.5V9.5C18.6569 9.5 20 10.8431 20 12.5H23ZM17 6.5C13.6862 6.5 11 9.18631 11 12.5H14C14 10.8431 15.3431 9.5 17 9.5V6.5ZM11 12.5C11 15.8138 13.6862 18.5 17 18.5V15.5C15.3431 15.5 14 14.1569 14 12.5H11ZM7.03131 29.8625L7.71465 30.4423L9.65552 28.1547L8.97219 27.5749L7.03131 29.8625ZM24.7361 31.3345L25.7105 30.8345L24.3408 28.1654L23.3665 28.6654L24.7361 31.3345ZM26.1 30.5468L27.0743 29.5468L24.9257 27.4532L23.9513 28.4532L26.1 30.5468ZM27.4511 28.1203L27.0586 26.6203L24.1564 27.3797L24.5489 28.8797L27.4511 28.1203ZM14.5 31.5C14.2058 32.9708 14.2061 32.9709 14.2064 32.971C14.2065 32.971 14.2068 32.971 14.207 32.9711C14.2075 32.9712 14.208 32.9713 14.2085 32.9714C14.2095 32.9716 14.2108 32.9718 14.2121 32.9721C14.2148 32.9726 14.2181 32.9733 14.2221 32.974C14.2299 32.9756 14.2402 32.9775 14.2528 32.9799C14.2781 32.9846 14.3127 32.9909 14.3561 32.9984C14.4429 33.0135 14.5651 33.0334 14.7176 33.0552C15.022 33.0987 15.4505 33.15 15.9627 33.1841C16.976 33.2517 18.3691 33.2559 19.7942 32.9708L19.2058 30.0291C18.1309 30.2441 17.024 30.2482 16.1623 30.1908C15.737 30.1624 15.3842 30.12 15.1418 30.0854C15.0209 30.0681 14.9282 30.0529 14.8685 30.0425C14.8387 30.0373 14.8171 30.0334 14.8045 30.031C14.7982 30.0299 14.7942 30.0291 14.7924 30.0287C14.7915 30.0286 14.7912 30.0285 14.7915 30.0286C14.7917 30.0286 14.792 30.0287 14.7924 30.0287C14.7926 30.0288 14.7929 30.0288 14.7932 30.0289C14.7933 30.0289 14.7936 30.029 14.7936 30.029C14.7939 30.029 14.7942 30.0291 14.5 31.5ZM19.7942 32.9708C21.149 32.6999 22.369 32.2967 23.2443 31.9653C23.6843 31.7987 24.0429 31.648 24.2946 31.5375C24.4206 31.4822 24.5202 31.4368 24.5901 31.4043C24.6251 31.3881 24.6528 31.375 24.6726 31.3656C24.6826 31.3608 24.6906 31.357 24.6966 31.3541C24.6996 31.3527 24.7021 31.3514 24.7041 31.3505C24.7051 31.35 24.706 31.3496 24.7067 31.3492C24.7071 31.349 24.7074 31.3488 24.7077 31.3487C24.7079 31.3486 24.7081 31.3485 24.7082 31.3485C24.7084 31.3484 24.7086 31.3483 24.0513 30C23.394 28.6517 23.3942 28.6516 23.3943 28.6515C23.3944 28.6515 23.3945 28.6514 23.3946 28.6513C23.3948 28.6512 23.395 28.6512 23.3951 28.6511C23.3954 28.651 23.3955 28.6509 23.3955 28.6509C23.3955 28.6509 23.395 28.6511 23.3941 28.6516C23.3922 28.6525 23.3883 28.6544 23.3826 28.6571C23.3712 28.6625 23.3524 28.6714 23.3264 28.6835C23.2744 28.7076 23.1942 28.7443 23.0888 28.7905C22.8778 28.8832 22.5673 29.0138 22.182 29.1597C21.4067 29.4532 20.351 29.8001 19.2058 30.0291L19.7942 32.9708ZM8.68508 29.2985C7.75163 30.4727 7.75184 30.4728 7.75206 30.473C7.75214 30.4731 7.75236 30.4732 7.75252 30.4734C7.75284 30.4736 7.75319 30.4739 7.75356 30.4742C7.7543 30.4748 7.75515 30.4754 7.75609 30.4762C7.75798 30.4777 7.76027 30.4795 7.76296 30.4816C7.76833 30.4858 7.77528 30.4913 7.78376 30.4978C7.80072 30.511 7.82384 30.5288 7.85274 30.5507C7.91049 30.5943 7.9916 30.6545 8.09302 30.7268C8.29522 30.871 8.58169 31.0659 8.92765 31.2754C9.60143 31.6833 10.5793 32.1951 11.6416 32.4565L12.3584 29.5434C11.7195 29.3862 11.0399 29.0473 10.4815 28.7092C10.2114 28.5456 9.98812 28.3936 9.83459 28.2841C9.75815 28.2296 9.6999 28.1863 9.66275 28.1582C9.6442 28.1442 9.63099 28.134 9.62348 28.1282C9.61973 28.1252 9.61741 28.1234 9.61657 28.1228C9.61615 28.1224 9.6161 28.1224 9.61643 28.1227C9.61659 28.1228 9.61685 28.123 9.6172 28.1233C9.61737 28.1234 9.61757 28.1236 9.6178 28.1237C9.61791 28.1238 9.61809 28.124 9.61815 28.124C9.61834 28.1242 9.61854 28.1243 8.68508 29.2985ZM11.6416 32.4565C12.5232 32.6734 13.1809 32.8054 13.6276 32.8842C13.851 32.9235 14.0216 32.9496 14.1411 32.9663C14.2009 32.9746 14.2479 32.9806 14.2823 32.9848C14.2995 32.9869 14.3135 32.9885 14.3244 32.9897C14.3299 32.9903 14.3346 32.9908 14.3385 32.9913C14.3405 32.9915 14.3422 32.9917 14.3438 32.9918C14.3446 32.9919 14.3453 32.992 14.346 32.992C14.3463 32.9921 14.3467 32.9921 14.347 32.9921C14.3472 32.9922 14.3474 32.9922 14.3475 32.9922C14.3477 32.9922 14.3479 32.9922 14.5 31.5C14.6521 30.0077 14.6523 30.0077 14.6525 30.0077C14.6526 30.0077 14.6528 30.0078 14.6529 30.0078C14.6532 30.0078 14.6535 30.0078 14.6537 30.0079C14.6542 30.0079 14.6546 30.008 14.655 30.008C14.6558 30.0081 14.6564 30.0081 14.6568 30.0082C14.6576 30.0083 14.6576 30.0083 14.6568 30.0082C14.6552 30.008 14.6504 30.0075 14.6425 30.0065C14.6265 30.0046 14.5978 30.001 14.5561 29.9951C14.4727 29.9835 14.3373 29.963 14.1483 29.9297C13.7703 29.8631 13.178 29.7451 12.3584 29.5434L11.6416 32.4565ZM7.22937 24.8979C6.86746 26.3541 6.52701 26.7805 6.50188 28.6991L9.50162 28.7384C9.52072 27.2803 9.64342 27.6228 10.1408 25.6215L7.22937 24.8979Z" fill="#535353"/>
</svg>
